<svg width="380" height="556" viewBox="0 0 380 556" fill="none" xmlns="http://www.w3.org/2000/svg">
<path d="M249.141 346.1H378.37C378.579 346.1 378.78 346.017 378.927 345.87C379.075 345.722 379.158 345.521 379.158 345.312C379.158 345.103 379.075 344.903 378.927 344.755C378.78 344.607 378.579 344.524 378.37 344.524H249.141C248.932 344.524 248.731 344.607 248.583 344.755C248.436 344.903 248.353 345.103 248.353 345.312C248.353 345.521 248.436 345.722 248.583 345.87C248.731 346.017 248.932 346.1 249.141 346.1Z" fill="#CBCBCB"/>
<path d="M145.464 547.658H142.87L141.636 537.653H145.464V547.658Z" fill="#9F616A"/>
<path d="M146.126 550.172H137.763V550.066C137.764 549.203 138.107 548.376 138.717 547.766C139.328 547.155 140.155 546.812 141.018 546.811H146.126V550.172Z" fill="#2F2E41"/>
<path d="M178.913 542.743L176.689 544.079L170.479 536.139L173.76 534.167L178.913 542.743Z" fill="#9F616A"/>
<path d="M173.606 548.865L173.551 548.774C173.108 548.034 172.976 547.148 173.185 546.31C173.394 545.473 173.926 544.752 174.665 544.307L179.044 541.676L180.775 544.557L173.606 548.865Z" fill="#2F2E41"/>
<path d="M146.139 545.593L146.094 545.593C144.832 545.589 143.572 545.517 142.318 545.376C141.84 545.329 141.321 545.277 140.697 545.226L140.675 545.222C140.249 545.095 140.237 541.098 140.418 527.417C140.511 520.409 140.615 512.467 140.491 507.408L140.489 507.359L140.527 507.326C142.783 505.348 145.475 503.932 148.383 503.194C151.291 502.456 154.332 502.416 157.259 503.078L157.304 503.088L157.328 503.128C159.877 507.441 163.726 513.654 167.449 519.663C175.993 533.456 178.437 537.512 178.169 537.818L178.137 537.843C177.553 538.135 177.115 538.36 176.743 538.551C175.269 539.314 173.754 539.997 172.206 540.597L172.137 540.625L172.088 540.57C163.418 531.07 156.203 520.457 151.74 510.647C151.218 513.996 150.585 518.37 149.917 522.991C147.993 536.279 146.694 545.029 146.17 545.561L146.139 545.593Z" fill="#2F2E41"/>
<path d="M148.475 508.431C153.645 508.408 158.781 509.268 163.661 510.973C163.831 502.78 161.085 494.793 155.912 488.437L155.874 488.391L155.893 488.335C157.255 484.399 158.663 480.332 159.921 476.284L159.902 476.216C159.02 473.08 157.126 469.911 154.113 466.527C153.786 466.189 153.343 465.987 152.873 465.963C152.403 465.94 151.941 466.095 151.582 466.399C148.942 468.813 146.886 471.796 145.569 475.122C144.253 478.448 143.71 482.03 143.982 485.597L143.984 485.617L143.979 485.637C141.619 493.63 140.763 497.735 140.007 501.357C139.456 503.999 138.979 506.287 138.021 509.556C141.455 508.809 144.96 508.432 148.475 508.431Z" fill="#CBCBCB"/>
<path opacity="0.1" d="M156.087 483.164L148.411 499.873L144.026 495.434L156.087 483.164Z" fill="black"/>
<path d="M152.805 464.901C155.82 464.901 158.265 462.456 158.265 459.44C158.265 456.424 155.82 453.979 152.805 453.979C149.789 453.979 147.344 456.424 147.344 459.44C147.344 462.456 149.789 464.901 152.805 464.901Z" fill="#9F616A"/>
<path d="M146.184 456.355H154.855V452.576C152.952 451.82 151.089 451.177 149.964 452.576C148.961 452.576 148 452.974 147.291 453.683C146.582 454.392 146.184 455.353 146.184 456.355Z" fill="#2F2E41"/>
<path d="M155.335 451.909C160.518 451.909 161.969 458.406 161.969 462.072C161.969 464.116 161.045 464.847 159.592 465.095L159.079 462.358L157.877 465.212C157.469 465.214 157.041 465.206 156.596 465.198L156.189 464.359L155.28 465.183C151.642 465.189 148.701 465.719 148.701 462.072C148.701 458.406 149.973 451.909 155.335 451.909Z" fill="#2F2E41"/>
<path d="M311.904 199.635C311.904 343.559 161.017 412.425 161.017 412.425C161.017 412.425 8.58176 343.559 5.48663 199.635C3.66738 115.04 74.0805 46.4268 158.695 46.4268C243.31 46.4268 311.904 115.021 311.904 199.635Z" fill="#8E9373"/>
<path d="M164.254 546.527H161.073L159.56 534.26H164.254V546.527Z" fill="#FFB7B7"/>
<path d="M158.801 545.618H164.935V549.48H154.939C154.939 548.973 155.039 548.471 155.233 548.002C155.427 547.534 155.711 547.108 156.07 546.749C156.429 546.391 156.855 546.106 157.323 545.912C157.792 545.718 158.294 545.618 158.801 545.618Z" fill="#2F2E41"/>
<path d="M176.187 546.527H173.007L171.493 534.26H176.188L176.187 546.527Z" fill="#FFB7B7"/>
<path d="M170.735 545.618H176.868V549.48H166.873C166.873 548.456 167.279 547.474 168.004 546.749C168.728 546.025 169.71 545.618 170.735 545.618Z" fill="#2F2E41"/>
<path d="M175.798 509.99C175.455 509.77 175.165 509.477 174.948 509.132C174.731 508.788 174.592 508.399 174.541 507.995C174.49 507.591 174.528 507.181 174.653 506.793C174.778 506.405 174.986 506.049 175.263 505.751L173.169 476.032L179.201 476.617L179.367 505.72C179.838 506.219 180.109 506.874 180.13 507.559C180.151 508.245 179.919 508.914 179.479 509.44C179.039 509.967 178.421 510.313 177.743 510.415C177.065 510.516 176.373 510.365 175.798 509.99Z" fill="#FFB7B7"/>
<path d="M164.103 540.347L160.602 540.18C160.304 540.165 160.022 540.038 159.815 539.822C159.608 539.607 159.492 539.32 159.49 539.022L159.246 503.596C159.244 503.428 159.28 503.261 159.349 503.108C159.418 502.955 159.519 502.818 159.646 502.708C159.773 502.597 159.922 502.516 160.083 502.468C160.245 502.42 160.414 502.408 160.581 502.432L174.588 504.466C174.865 504.505 175.118 504.642 175.302 504.852C175.485 505.063 175.587 505.333 175.588 505.612L177.389 538.438C177.39 538.592 177.361 538.745 177.303 538.888C177.245 539.03 177.159 539.16 177.05 539.269C176.942 539.379 176.813 539.465 176.67 539.525C176.528 539.584 176.376 539.614 176.222 539.614H172.447C172.169 539.615 171.899 539.517 171.687 539.336C171.476 539.155 171.336 538.904 171.294 538.628C171.294 538.628 168.443 514.006 168.051 514.021C167.658 514.028 165.318 539.319 165.318 539.319C165.283 539.602 165.146 539.863 164.933 540.053C164.719 540.242 164.444 540.347 164.159 540.348C164.14 540.348 164.122 540.348 164.103 540.347Z" fill="#2F2E41"/>
<path d="M174.535 486.018C174.393 485.916 174.277 485.784 174.193 485.631C174.11 485.479 174.062 485.309 174.052 485.135L173.61 477.125C173.567 476.332 173.818 475.55 174.317 474.931C174.815 474.312 175.525 473.9 176.31 473.773C177.094 473.646 177.898 473.815 178.566 474.246C179.234 474.677 179.718 475.34 179.926 476.107L181.868 483.268C181.949 483.567 181.907 483.885 181.754 484.154C181.6 484.422 181.345 484.619 181.047 484.7L175.524 486.198C175.356 486.244 175.18 486.251 175.009 486.22C174.837 486.189 174.675 486.12 174.535 486.018Z" fill="#3F3D56"/>
<path d="M169.375 466.981C172.894 466.981 175.747 464.128 175.747 460.609C175.747 457.091 172.894 454.238 169.375 454.238C165.856 454.238 163.003 457.091 163.003 460.609C163.003 464.128 165.856 466.981 169.375 466.981Z" fill="#FFB7B7"/>
<path d="M173.884 465.651C173.618 465.938 173.275 466.143 172.896 466.242C172.517 466.341 172.117 466.33 171.744 466.21C171.372 466.09 171.041 465.866 170.791 465.564C170.541 465.263 170.382 464.896 170.333 464.507C170.321 464.373 170.322 464.238 170.336 464.104C170.416 463.337 170.858 462.642 170.752 461.833C170.728 461.631 170.653 461.44 170.534 461.275C169.587 460.007 167.364 461.843 166.47 460.694C165.922 459.99 166.566 458.882 166.145 458.095C165.59 457.056 163.946 457.569 162.915 457C161.767 456.367 161.836 454.607 162.591 453.536C163.083 452.903 163.708 452.387 164.422 452.023C165.136 451.66 165.921 451.458 166.722 451.433C168.325 451.395 169.918 451.706 171.39 452.344C173.127 452.909 174.661 453.972 175.8 455.402C176.389 456.339 176.763 457.395 176.893 458.495C177.024 459.594 176.908 460.709 176.555 461.758C176.169 463.045 174.855 464.617 173.884 465.651Z" fill="#2F2E41"/>
<path d="M175.735 471.237C175.624 471.158 175.512 471.08 175.396 471.003C174.785 470.596 174.122 470.271 173.426 470.037V468.363H168.497V469.916C166.863 470.367 165.398 471.288 164.283 472.565C163.169 473.842 162.454 475.419 162.229 477.099L158.872 502.016C158.851 502.172 158.861 502.33 158.903 502.482C158.944 502.634 159.016 502.775 159.114 502.899C159.209 503.021 159.329 503.122 159.465 503.197C159.601 503.271 159.751 503.318 159.906 503.333C162.257 503.637 164.523 504.413 166.568 505.614C168.052 506.437 169.723 506.863 171.42 506.853C172.768 506.848 174.104 506.61 175.37 506.15C175.585 506.071 175.771 505.93 175.906 505.745C176.041 505.56 176.118 505.339 176.127 505.111C176.248 502.429 176.955 488.626 179.013 480.207C179.413 478.555 179.315 476.822 178.732 475.226C178.149 473.63 177.106 472.242 175.735 471.237Z" fill="#3F3D56"/>
<path d="M212.087 420.937H109.947L97.5669 371.415H224.467L212.087 420.937Z" fill="#424928"/>
<path d="M208.604 505.628H113.429V555.226H208.604V505.628Z" fill="white"/>
<path d="M209.378 556H112.655V504.854H209.378V556ZM114.203 554.452H207.83V506.402H114.203V554.452Z" fill="#3F3D56"/>
<path d="M180.526 426.777H141.508L137.03 419.74H185.004L180.526 426.777Z" fill="#3F3D56"/>
<path d="M112.268 420.937H110.721V496.768H112.268V420.937Z" fill="#3F3D56"/>
<path d="M211.313 420.937H209.765V496.768H211.313V420.937Z" fill="#3F3D56"/>
<path d="M176.529 370.576L175.584 369.351C220.292 334.874 273.585 275.81 273.585 190.218C273.621 160.24 264.805 130.919 248.242 105.932C231.68 80.9455 208.109 61.405 180.485 49.7616L181.088 48.3364C208.992 60.098 232.802 79.8368 249.533 105.077C266.263 130.318 275.169 159.936 275.133 190.218C275.133 276.438 221.512 335.887 176.529 370.576Z" fill="#3F3D56"/>
<path d="M127.006 370.577L126.062 369.351C170.769 334.874 224.063 275.81 224.063 190.218C224.076 160.442 215.365 131.314 199.008 106.433C182.651 81.5526 159.364 62.0083 132.023 50.2146L132.637 48.7939C160.255 60.7073 183.778 80.45 200.301 105.583C216.824 130.717 225.623 160.139 225.611 190.218C225.611 276.439 171.989 335.888 127.006 370.577Z" fill="#3F3D56"/>
<path d="M190.384 370.576C145.401 335.887 91.7798 276.438 91.7798 190.217C91.7675 160.139 100.566 130.716 117.09 105.583C133.613 80.4492 157.137 60.7066 184.756 48.7935L185.369 50.2141C158.028 62.0076 134.741 81.5519 118.383 106.433C102.026 131.314 93.3153 160.441 93.3274 190.217C93.3274 275.809 146.621 334.874 191.329 369.35L190.384 370.576Z" fill="#3F3D56"/>
<path d="M140.862 370.576C95.8794 335.888 42.258 276.439 42.258 190.218C42.2075 159.816 51.1758 130.084 68.0282 104.781C84.8807 79.4782 108.86 59.743 136.932 48.0723L137.528 49.5004C109.738 61.0538 86.0001 80.5908 69.3169 105.639C52.6338 130.688 43.7556 160.122 43.8056 190.218C43.8056 275.81 97.0994 334.874 141.807 369.351L140.862 370.576Z" fill="#3F3D56"/>
<path d="M159.469 46.4268H157.922V371.415H159.469V46.4268Z" fill="#3F3D56"/>
<path d="M141.26 494.383L112.882 522.761L113.976 523.855L142.354 495.477L141.26 494.383Z" fill="#3F3D56"/>
<path d="M155.055 493.911L112.871 538.277L113.992 539.344L156.176 494.977L155.055 493.911Z" fill="#3F3D56"/>
<path d="M217.503 494.446H101.436V508.374H217.503V494.446Z" fill="white"/>
<path d="M218.277 509.148H100.662V493.672H218.277V509.148ZM102.21 507.6H216.729V495.22H102.21V507.6Z" fill="#3F3D56"/>
<path d="M138.975 500.924C139.285 500.902 139.587 500.813 139.859 500.662C140.131 500.511 140.367 500.303 140.549 500.051C140.732 499.799 140.857 499.511 140.916 499.205C140.975 498.9 140.967 498.585 140.891 498.284L147.215 494.14L143.608 492.582L138.156 496.756C137.658 496.916 137.235 497.254 136.97 497.706C136.704 498.157 136.613 498.69 136.714 499.204C136.815 499.718 137.101 500.176 137.518 500.494C137.934 500.811 138.453 500.964 138.975 500.924H138.975Z" fill="#9F616A"/>
<path d="M145.06 497.939L144.981 497.883C143.476 496.775 141.805 495.63 140.189 494.522L140.092 494.455L140.168 494.366C143.617 490.331 147.07 486.116 150.409 482.039L150.403 482.024L150.434 482.008L150.448 481.992L150.455 481.998L150.475 481.987L150.384 481.994L149.355 473.922C148.845 473.083 148.585 472.116 148.604 471.134C148.624 470.153 148.923 469.197 149.465 468.378C150.09 467.495 151.018 466.874 152.073 466.633C153.127 466.392 154.233 466.549 155.179 467.074C155.646 467.387 156.036 467.801 156.321 468.286C156.606 468.771 156.778 469.313 156.825 469.874C156.892 470.373 156.845 470.88 156.69 471.359C156.535 471.838 156.275 472.277 155.929 472.642C156.285 476.56 156.442 480.493 156.4 484.426L156.4 484.463L156.377 484.493C152.817 489.016 148.906 493.515 145.124 497.866L145.06 497.939Z" fill="#CBCBCB"/>
<path d="M146.286 473.128C146.318 473.268 146.338 473.41 146.348 473.554L157.492 479.983L160.201 478.423L163.088 482.204L157.294 486.334L144.58 476.304C144.061 476.496 143.497 476.525 142.961 476.388C142.425 476.251 141.944 475.955 141.581 475.538C141.218 475.121 140.991 474.603 140.929 474.053C140.867 473.504 140.975 472.949 141.236 472.462C141.498 471.975 141.902 471.579 142.394 471.327C142.886 471.075 143.443 470.978 143.991 471.051C144.539 471.123 145.053 471.361 145.462 471.732C145.872 472.103 146.159 472.59 146.286 473.128H146.286Z" fill="#FFB7B7"/>
<path d="M157.89 479.436C157.871 479.263 157.892 479.088 157.95 478.924C158.008 478.76 158.102 478.611 158.225 478.488L163.897 472.815C164.459 472.253 165.209 471.919 166.003 471.877C166.797 471.836 167.578 472.089 168.195 472.589C168.813 473.09 169.224 473.801 169.348 474.586C169.473 475.37 169.302 476.174 168.87 476.84L164.831 483.065C164.662 483.324 164.397 483.506 164.094 483.57C163.792 483.635 163.476 483.576 163.216 483.408L158.416 480.293C158.269 480.199 158.146 480.073 158.055 479.924C157.964 479.776 157.908 479.609 157.89 479.436Z" fill="#3F3D56"/>
</svg>
